{
	"asset":{
		"generator":"Khronos glTF Blender I/O v4.2.69",
		"version":"2.0"
	},
	"scene":0,
	"scenes":[
		{
			"name":"Scene",
			"nodes":[
				0
			]
		}
	],
	"nodes":[
		{
			"mesh":0,
			"name":"outer",
			"rotation":[
				0.2705700695514679,
				-0.6532931923866272,
				-0.6532931327819824,
				0.2705698609352112
			],
			"scale":[
				1.2921288013458252,
				1.2921288013458252,
				1.2921288013458252
			],
			"translation":[
				0,
				0,
				-0.24909885227680206
			]
		}
	],
	"materials":[
		{
			"doubleSided":true,
			"name":"Material.001",
			"pbrMetallicRoughness":{
				"baseColorFactor":[
					0.5403821468353271,
					0.5403821468353271,
					0.5403821468353271,
					1
				],
				"roughnessFactor":0.02755904197692871
			}
		}
	],
	"meshes":[
		{
			"name":"Circle.002",
			"primitives":[
				{
					"attributes":{
						"POSITION":0,
						"NORMAL":1
					},
					"indices":2,
					"material":0
				}
			]
		}
	],
	"accessors":[
		{
			"bufferView":0,
			"componentType":5126,
			"count":48112,
			"max":[
				2.1372876167297363,
				0.44331133365631104,
				2.1372876167297363
			],
			"min":[
				-2.1372876167297363,
				-0.06228405237197876,
				-2.1372876167297363
			],
			"type":"VEC3"
		},
		{
			"bufferView":1,
			"componentType":5126,
			"count":48112,
			"type":"VEC3"
		},
		{
			"bufferView":2,
			"componentType":5123,
			"count":86016,
			"type":"SCALAR"
		}
	],
	"bufferViews":[
		{
			"buffer":0,
			"byteLength":577344,
			"byteOffset":0,
			"target":34962
		},
		{
			"buffer":0,
			"byteLength":577344,
			"byteOffset":577344,
			"target":34962
		},
		{
			"buffer":0,
			"byteLength":172032,
			"byteOffset":1154688,
			"target":34963
		}
	],
	"buffers":[
		{
			"byteLength":1326720,
			"uri":"lotusflow_logo.bin"
		}
	]
}
